<svg xmlns="http://www.w3.org/2000/svg" viewBox="0 0 241.88 352.7"><defs><style>.cls-1{fill:#fff;}</style></defs><title>Asset 1</title><g id="Layer_2" data-name="Layer 2"><g id="Layer_1-2" data-name="Layer 1"><path class="cls-1" d="M13.87,301.53c3.11-.77,4-3.32.6-5.18-4.58-2.54-1.64-7.35-4.75-10-5.7-4.82-.81-12-3.71-17.82-2.33-4.65-.4-9.92.79-14.82.3-1.25.62-3.41-.19-3.23-8.72,2-2.32-1.22-1.14-3,2.24-3.36-1.71-4-3-5.65-1.51-1.92-2.2-2.91.54-4C5,237.08,6.2,235,5.85,233.47c-.44-1.93-2.45-.49-3.83-.35a2.19,2.19,0,0,1-1.84-.77,3.83,3.83,0,0,1,0-2.37c4.65-.92,4.47-5.93,7.41-8.56-2.06-.77-5.09,2-5.82-.49S-.53,214.72,3,212.3a1.76,1.76,0,0,0,.47-1.63c-3.76-5.41.41-8.74,4.09-9.63,4.25-1,3.81,4.65,5.19,7.21,7.14,13.28,11.5,27.76,20.41,40.44,8.16,11.61,18.22,21.08,27.77,31.2a11.25,11.25,0,0,0,4.85,2.64C74,285,79.51,291.6,86.52,295.87c4.75,2.9,10.59,2.7,15.58,2.23,18.68-1.78,37.73-.1,56-6.13,6.22-2,11.75-4.63,16.52-9,.92-.84,1.75-2.13,2.83-2.4C191.77,277.1,195.74,263,204.52,254c13-13.4,19.91-30.18,24.25-48.14.33-1.37.39-4.09,3-3.38a6.61,6.61,0,0,1,4.48,6.26c-.17,2.29,1.72,3.82,4,4.6.73.25,2.69.1,1.11,1.63-4.23,4.11-2.11,8.18-.21,12.32h.07c-3.34-1.1-4.9-.72-3.86,3.5.87,3.54-2.92,7.86,1.68,10.94.15.1,0,.65,0,1-.58-.1-1.36,0-1.71-.34-2.95-2.91-3.25-.23-2.69,1.56,2.27,7.22,0,14.59-2.46,20.43-2.09,4.85-1.06,9.68-3.09,14-1.19,2.52,2.15.76,2,3.11-.39,7.64-5.77,10.95-11,14.6-2.43,1.71-2.38,4.55-3.55,6.82-4.23,8.19-13.19,12.64-17.21,20.48-4.27,8.33-11.85,12.1-19,13.1-7.9,1.1-13,6.63-20.15,8.55a72.48,72.48,0,0,0-17.39,7c-3.1,1.8-5.46-.5-8.2-.47-5.15.06-10.22,1.07-15.81-.68-4.32-1.35-9.91-.77-14.83-2.16l0,0c-2.93-4.9-7.58-.74-11.33-2.2a133,133,0,0,0-13.71-4c-1.27-.34-3-1-3.86-.46-4,2.63-7.34-.18-10.93-.84-.11,0-.24-.24-.29-.22-6.88,3.58-6.43-5.73-11.18-6.33-5.44-.69-10.61-4.58-13.5-7.8-6.53-7.28-16.69-11.89-18.74-23.06-.61-3.32-3.7-.26-5.64-.47-1-.11-2.19.27-2.3-1.09-.1-1.19.58-1.62,1.58-.61l-.06.13Z"/><path class="cls-1" d="M20.43,113l0,.06s0-.07,0-.1A.1.1,0,0,1,20.43,113Z"/><path class="cls-1" d="M225.75,83.68c-.2-5.25-5-9-7.24-13.71-1-.61-2.28-1-2-2.68,1.61.12,2,1.23,2.26,2.44.88-2.88-1.75-3.7-3.09-5.28l-.35-.28c-6.19-7.37-6.5-18-15.29-23.65.93-.46,2.61-.81,1.4-2.15-6.55-7.2-10.84-16.28-19-22.17-15.26-11-32.67-17.74-51-15.9C104.09,3.05,77.68,10.54,56.32,29.66c-1,.89-3.18,2-2.16,3.45,1.24,1.69,2.86,0,4.15-.92s2.63-1.91,4-2.78c.68-.43,1.57-1.23,2.19-.1.16.29-.57,1.29-1.1,1.69-2.59,1.93-5.38,3.62-7.87,5.67-4.72,3.9-12.32,5.53-11.42,14.1.06.55-1.25,1.67-2.06,1.82-4,.74-7.12,2.89-10.13,5.37-1.63,1.33-5.07,1.89-4.61,3.9s3.84,1.65,6,2.17c.15,0,.24.33.69,1-8.71-2.18-9.23,6.14-13,10-5.38,5.45-5.52,14-9.82,20.37a15.8,15.8,0,0,0-3,8.32c-.08,2,.52,3,2.21,1.44,3.08-2.78,3,0,3,1.72,0,3.22-1.34,6.29-1.88,9.35-1.72,9.67-6,18.91-4.24,29.26,1.31,7.66,1,15.57,1.76,23.34.42,4.32-5.47,5.79-4.14,10.42,1.43,5,.74,9.81-1.35,14.6-.5,1.15.68,3,1.09,4.58,1.08-.48,2.68-.69,3.11-1.52.54-1,3.34-2.49.15-3.94-.83-.37-1.15-1.8.15-1.88,4.91-.31,2-2.76,1.06-4.15-4-6.14-3.5-9.28,2.22-12.11a2.7,2.7,0,0,0,1-1.52c2.19-7,4.69-13.87,6.35-21,.76-3.28,2.39-7.21-1.88-10.25-1.31-.93-1.19-4.56,1.32-5.63,4.48-1.92,2.75-6.07,3.77-9.21.1-.31-.56-.86-.87-1.3a10,10,0,0,0-3.1,6.92c0,.09-.39.16-.88.36-1.45-5.85,4.52-9.33,4.89-14.81-1.48.77-2.35,3-3.7,1.4-1.78-2.12-1.13-5-1.25-7.57,3.19,1.62,2.7-1.66,4.14-4.11-.31,2.43-.46,3.64-.62,4.83,3.32-2.27,3.71-5.92,4.37-9.42.85-4.53,1.06-9.27,2.55-13.58C32.21,76.05,40,63.7,49.14,52.34a70.28,70.28,0,0,1,27.48-21c21-8.83,41.41-5.46,61.33,4.39,7.43,3.67,15.26,6.55,22.9,9.82,11.21,4.79,23,8.93,29.93,19.88,3.68,5.79,6.68,11.94,12.8,15.72,1.8,1.12,2.66,5,4.8,3.88,2.58-1.33-1.47-3.35-1-5.39,0-.15.34-.23.51-.34,1.33,1.79,2.79,3.48,3.94,5.36,4,6.44,9,12.6,8.25,20.79a61.59,61.59,0,0,0,2.61,25.73c2,6.08,5.67,12.27,2.59,19.2a5.46,5.46,0,0,0,0,2.6c.12,1,.34,2.23,1.58,2.17.65,0,1.39-.85,1.86-1.49,3.22-4.41,2.53-8.42.66-13.64-2.91-8.09-3.7-17-5.31-25.5-.16-.81-1-2.16.56-2.43.36-.07,1.18,1.35,1.5,2.2,1.28,3.34,1.2,3.31,3.47,1.35.3-.26,1.27.17,1.9.38s1.28.56,1.92.84c0-.81,0-1.62.14-2.42C235.07,103.16,226.17,94.59,225.75,83.68Zm-212.23,53c-.8-4.42-1.43-7.37.42-11.87C14.69,129.38,15,132.33,13.52,136.7Z"/><path class="cls-1" d="M126,223.33c2.54-3.77,2.41-7.54,5.05-10.13,4.78-4.7,10.43-2.86,12.45,4.79a80.43,80.43,0,0,1,1.63,30.59,3.5,3.5,0,0,1-3.84,3.32c-2.87-.39-3.82-2.85-3.5-5.31a110.92,110.92,0,0,0-.09-26.39c-.2-1.82,0-4.22-2-4.67-2.51-.55-3.65,1.86-4.4,3.79-3.06,7.92-4.13,16.27-4.73,24.67-.21,3-.52,5.38-4.24,5s-3.71-3.47-3.27-5.92c1.34-7.46.34-14.93.6-22.39.07-1.94,0-4.56-2.09-5.11-2.49-.67-3.6,1.9-4.35,3.79-3.35,8.45-4.52,17.38-5.57,26.35-.26,2.22.51,6-2.67,6-3.55.05-2.32-3.62-2.45-5.85-.58-10.29-1-20.59-1.56-30.88-.13-2.51.09-4.39,3.47-4.3s4.07,2.05,4,4.61c-.11,2.95-.6,5.88-1.13,10.61,3.58-7.09,3-16.32,12.48-14.95C125.27,211.8,125.6,217.56,126,223.33Z"/><path class="cls-1" d="M101.63,81.53q-3.73,9.34-7.46,18.68c-.69,1.72-1.18,4-3.41,3.89s-2.65-2.26-3.32-4c-2.46-6.44-5-12.86-8.08-20.91-.64,9.49-1.18,17.28-1.69,25.08-.14,2.1,0,5-2.59,4.93s-1.81-3-1.86-4.92c-.29-10.2-.49-20.41-.79-30.61-.09-2.92.69-5.32,3.77-6s5,.85,6,3.7c2.81,8,5.61,16,8.61,24.58,2.94-9,5.73-17.41,8.41-25.85.7-2.19,1.68-4,4.19-4s3.11,2.52,3.34,4.31c1.44,11.28,2.69,22.59,3.9,33.9.28,2.62.07,5.14-3.6,5.21-3.91.08-3.91-2.54-3.89-5.33,0-7.51,0-15,0-22.54Z"/><path class="cls-1" d="M150.28,81.22c2.14-4.06,4-7.39,5.66-10.81s4.5-4.09,7.81-3.7c3,.35,4.63,2.64,5.35,5.12,3.21,11,3.09,22.31,1.56,33.59-.28,2.08-2.17,2.84-4,2.45a4,4,0,0,1-3.41-4.62c1.27-9.2.23-18.43.46-27.64,0-1.55,0-3.58-1.88-4-2-.46-3.06,1.33-3.87,2.89-5,9.47-7,19.77-8.25,30.26-.19,1.52,0,3.2-2.17,3.22s-2.32-1.63-2.4-3.13q-.83-16.95-1.57-33.9c-.1-2.24-.1-4.22,3.14-4.29s4.47,1.47,4.43,4.2C151.14,74.05,150.65,77.25,150.28,81.22Z"/><path class="cls-1" d="M136.92,167.35c.42-7,.88-16.19,1.53-25.35.35-5,8.16-7.11,15.24-4.2,6.78,2.79,8.91,13.84,2.19,20.74-5.13,5.27-3,8.44-.69,13.05,1.49,3,5.56,7.7,2.59,9.32-3.73,2-4.83-4.28-7.33-6.7a33.93,33.93,0,0,1-3-4.21c-2.92-3.88-5.1-7.29,1.19-10.51,3.83-2,5.17-6.29,5.46-10.49.28-4-1.93-6.23-6-6.45-3.91-.21-5.43,1.38-5.19,5.49.52,8.94.61,17.91.85,26.87.06,2.29.18,4.94-3,5s-3.92-2.41-3.84-5.18C137,173,136.92,171.25,136.92,167.35Z"/><path class="cls-1" d="M172.85,180c-9.35,1.73-7.29-6.07-8-10.93a192.22,192.22,0,0,1-1.62-20.36c-.39-8.24,5.32-11.93,14-10.68,16.31,2.35,15.77,23.2,9.47,33.89C183.73,176.91,179.85,181,172.85,180Zm-3-16.74H170a19.38,19.38,0,0,0,0,3.73c.57,2.86-2,7.39,2.67,8.14,4.34.69,7.54-2,9.44-6.28,2.67-6,2.3-12.18,1.66-18.29-.53-5.06-4.22-7.62-9.24-8-2.17-.15-3.81.41-3.89,3.23C170.56,151.68,170.14,157.49,169.83,163.3Z"/><path class="cls-1" d="M66.75,138.79c4.45-.41,8.63.8,10.67,5.62,2.26,5.34.82,10.17-2.91,14.4a21.85,21.85,0,0,1-2.92,2.9c-2.4,1.86-3.43,3.24-.3,5.77,2.74,2.22,2.67,5.6.87,8.78-2.69,4.75-7.22,4.95-11.7,4.32-3.53-.5-4.26-3.6-4.53-6.77-.68-8.12-1.36-16.25-2.23-24.36C52.9,142,56.54,138.79,66.75,138.79Zm-5.07,24.56c4-3.58,9.18-6.08,11-11.67.81-2.5,1.41-5.14-1-7.22a6.38,6.38,0,0,0-7.18-1.22c-2.77,1.16-3.38,3.34-3.37,6,0,4.49,0,9-.06,13.47-1.43,2.68-.36,5.56-.65,8.33-.25,2.35-.14,4.73,3,4.73,2.12,0,4.73,0,5.14-2.93.38-2.79-1.22-4.25-3.89-4.86C62.32,167.44,60.55,166.28,61.68,163.35Z"/><path class="cls-1" d="M50,233.48c-.13,6.37-.11,12.64,7.73,14.91,2.21.64,4,0,4-2.25,0-1.92,2.1-5.32-2.58-5.41-2.25,0-4.94-1-4.49-3.79.51-3.19,3.16-2.38,5.33-1.6,3.14,1.13,7.76,1.22,7.71,5.6s-1.08,9.39-6.33,11.13-10.82,1.56-14.74-3c-8-9.33-4.9-30.27,5.32-36.77,4-2.53,8.42-2.78,11.87.92a14.05,14.05,0,0,1,3.33,14c-.48,1.71-2,1.74-3.4,1.49a2.81,2.81,0,0,1-2.51-2.81c-.08-2.24,0-4.49,0-6.74,0-1.72.26-3.74-1.75-4.47s-3.85.17-5.22,1.91C50.31,221.6,49.74,227.44,50,233.48Z"/><path class="cls-1" d="M139.42,99.14a54.36,54.36,0,0,1-.89,6.29,3,3,0,0,1-3.6,2.52,2.87,2.87,0,0,1-2.48-3.23c.16-2.36-.79-1.86-2.32-1.19-4.53,2-9.1,3-12.94-1.38-3-3.4-2.51-7.23-.41-10.69,2.88-4.76,7.61-5,12.53-4.13.78.14,1.52,1,2.24-.11,1.47-2.27-.93-14.43-3.35-15.86-2.68-1.58-4.89-1-5.38,2.39a41.41,41.41,0,0,0-.08,6.36c0,2.35-.86,3.84-3.41,3.94-3,.12-3.44-2.54-3.19-4.09.88-5.57,1.52-11.93,8.66-13.1s9.9,3.88,11.74,9.53C138.85,83.56,138.79,91,139.42,99.14Zm-13.25-7.77c-2.82-.52-3.88,2.32-4.09,5.45-.13,2,.88,4,3.54,3.67,3.06-.43,6.23-1.15,6.73-4.92C132.82,92,130.1,91.74,126.17,91.37Z"/><path class="cls-1" d="M132.26,170.34c0,2.11.32,4.3-.1,6.32-.33,1.59-1.29,3.42-3.48,3.32s-3.07-1.47-3-3.5c.1-2.25-.84-1.57-2.16-1-4.65,2-9.34,3.15-13.21-1.48-2.88-3.44-2.35-7.31-.16-10.68,3-4.59,7.64-4.94,12.57-3.87.71.16,2,1.17,2-.27.32-5.43.64-10.93-3-15.61a3.16,3.16,0,0,0-3.77-.82,3,3,0,0,0-2.09,3.19c.05,2,0,4,0,6,.06,2.51-.82,4.15-3.6,4.07s-3.18-2.76-2.9-4.31c1-5.51,1.64-11.93,8.9-12.79,7.7-.92,10.43,4.86,11.73,10.88,1.45,6.73,2,13.66,2.88,20.5Zm-12.94-7c-2.69-.63-3.66,2.27-4,5.18-.25,2.19.76,4.35,3.61,4,3.06-.42,6.23-1.19,6.67-5C126,163.88,123.25,163.74,119.32,163.34Z"/><path class="cls-1" d="M96.64,242.42a65.74,65.74,0,0,1-.9,7,3,3,0,0,1-3.59,2.51,2.87,2.87,0,0,1-2.45-3.25c.17-2.3-.67-1.91-2.28-1.2-4.5,2-9.07,3.09-12.93-1.31-3.1-3.54-2.53-7.49-.26-11,2.9-4.46,7.61-5,12.29-3.71,2.34.63,2.41,0,2.47-1.86a32.54,32.54,0,0,0-1.56-11.7c-.74-2.18-2.16-3.7-4.69-3.36s-3,2.28-2.83,4.45a1.5,1.5,0,0,1,0,.37c-.58,2.86,1.61,6.47-2.1,8.41a3.28,3.28,0,0,1-3.09-.41c-2.44-3-.91-6.33,0-9.42,1.21-3.89,3.53-6.7,8-7.16,4.73-.49,7.53,2.21,9.43,5.9C96.26,224.67,95.6,233.51,96.64,242.42Zm-13.28-7.11c-2.76-.51-3.85,2.33-4.06,5.49-.14,2,.88,4.08,3.56,3.7,3.08-.43,6.28-1.14,6.79-4.95C90.13,236,87.38,235.71,83.36,235.31Z"/><path class="cls-1" d="M104,153.9c.37,6.67-2.81,8.32-8.88,6.87-1.85-.44-5.38-1.61-5.88.59-1.05,4.64-.18,9.52,3.57,13,2.31,2.15,4.78,1.14,6.9-.91,1-1,1.74-2.67,3.58-2.25,1.16.26,1.32,1.28,1.38,2.35.12,2.11-1.33,3.18-2.8,4.07-7.9,4.8-17.11.82-19.44-8.46-1.86-7.42-.94-14.77,1.58-21.84,1.9-5.34,6.07-9.3,11.78-8.21C103.56,140.62,103.41,147.75,104,153.9Zm-6-1.72c-1.06-3.16.6-9.47-3.51-9.09-5.6.52-4.49,7.41-5.3,11.73-.64,3.42,2.79,1.59,4.38,1.92C97.09,157.49,98.79,156.06,98,152.18Z"/><path class="cls-1" d="M173,225.75c.49,6.77-2.62,8.65-9,7.09-1.8-.45-5.26-1.68-5.8.94-.93,4.54-.06,9.28,3.67,12.63,2.23,2,4.57,1.06,6.62-.86,1.12-1,1.9-3,3.86-2.34.64.22,1.2,1.51,1.29,2.37.24,2.22-1.43,3.32-3.09,4.22-8.23,4.5-17.18.35-19.3-8.9-1.62-7.08-.83-14,1.39-20.82,1.88-5.73,5.86-9.81,12-9.06,6.49.79,7.47,6.71,8.28,12.11A19,19,0,0,1,173,225.75Zm-6.82-3.37c-.61-1.09,1.48-7.56-2.68-7.18-5.61.5-4.38,7.46-5.27,11.79-.58,2.8,2.46,1.5,3.91,1.7C165.2,229.11,167.9,228.83,166.18,222.37Z"/><path class="cls-1" d="M189.22,209.9c3,0,5.51.33,7.53,2.37,1.65,1.67,3,3.48,2.38,5.91-.24.89-1.46,2.18-2.18,2.14-2.35-.1-3.53-2-4.56-3.9-1.13-2.12-3.16-3.52-5.13-1.88-3.21,2.66-2.64,6.42-.46,9.32,1.73,2.3,4.4,4,6.83,5.67,5.58,3.92,6.43,9.56,5.55,15.61a8.52,8.52,0,0,1-6.58,7.31c-3.81,1-7.32.8-10.23-2.45A13.67,13.67,0,0,1,179,238.65a2.51,2.51,0,0,1,3.27-2.24,3.51,3.51,0,0,1,2.57,4.36c-1.07,3.63,0,6.2,3,7.89a3,3,0,0,0,4.15-1.51c1.64-3.33,2-6.88-.64-9.76-3.25-3.52-7.27-6.36-10.35-10s-2.66-8.17-.52-12.25C182.33,211.61,185.29,209.48,189.22,209.9Z"/><path class="cls-1" d="M233.61,176c.33,2.47-1.61,5.71.68,8.76.6.8.06,1.76-.84,2.15-1.34.58-2.05-.23-2.61-1.36-2-4-1.35-8.28-1.11-12.49.05-.93.63-1.83,1.7-1.51C233.26,172.06,233.87,173.5,233.61,176Z"/><path class="cls-1" d="M236.56,196.66c-.07,2.44.67,4.93-1.9,5.07a3.29,3.29,0,0,1-3.21-3.79c.3-1.33-.52-4.24,2.51-4C235.83,194.14,238.31,194.24,236.56,196.66Z"/><path class="cls-1" d="M4,255.73a5,5,0,0,1-.3-1.1c0-.17.32-.52.38-.5a4.25,4.25,0,0,1,.78.5Z"/><polygon class="cls-1" points="33.46 244.65 33.24 244.66 33.33 244.47 33.46 244.65"/><path class="cls-1" d="M20.42,113l.17.71c0-.21-.07-.43-.12-.64Z"/><polygon class="cls-1" points="241.06 227.24 241.27 227.31 241.13 227.24 241.06 227.24"/><polygon class="cls-1" points="13.87 301.49 13.9 301.68 13.96 301.55 13.87 301.49"/></g></g></svg>